<svg id="Capa_1" enable-background="new 0 0 512 512" height="512" viewBox="0 0 512 512" width="512" xmlns="http://www.w3.org/2000/svg"><g><g><path clip-rule="evenodd" d="m349.785 495.5h135.241c2.495 0 4.535-2.04 4.535-4.534v-285.224h-139.776l-41.452 149.258z" fill="#b3e59f" fill-rule="evenodd"/></g><g><path clip-rule="evenodd" d="m162.215 495.5h-135.241c-2.523 0-4.564-2.04-4.564-4.534v-285.224h139.805l38.552 149.258z" fill="#b3e59f" fill-rule="evenodd"/></g><g><path clip-rule="evenodd" d="m22.41 247.294h120.635v248.206h14.606c2.494 0 4.564-2.04 4.564-4.534v-263.007h-139.805z" fill="#95d6a4" fill-rule="evenodd"/></g><g><path clip-rule="evenodd" d="m162.215 227.959h-139.805-12.359c-1.417 0-2.551-1.162-2.551-2.579v-26.326c0-1.417 1.134-2.579 2.551-2.579h152.164z" fill="#6f6571" fill-rule="evenodd"/></g><g><path clip-rule="evenodd" d="m144.045 227.959h18.17v-22.217-9.266h-18.17v9.266z" fill="#5d5360" fill-rule="evenodd"/></g><g><path clip-rule="evenodd" d="m162.215 495.5h187.569v-267.541-91.136h-187.569v91.136z" fill="#eceaec" fill-rule="evenodd"/></g><g><path clip-rule="evenodd" d="m162.215 159.041h187.569 16.696c1.899 0 3.43-1.53 3.43-3.457v-31.229c0-1.899-1.531-3.457-3.43-3.457h-110.494-110.467c-1.899 0-3.458 1.559-3.458 3.457v31.229c0 1.927 1.559 3.457 3.458 3.457z" fill="#6f6571" fill-rule="evenodd"/></g><g><path clip-rule="evenodd" d="m255.986 83.831h66.955c3.317 0 6.038-2.72 6.038-6.064v-43.216c0-3.344-2.721-6.064-6.038-6.064h-66.955z" fill="#ff8086" fill-rule="evenodd"/></g><g><path clip-rule="evenodd" d="m162.215 177.659h170.08v317.841h17.49v-267.541-68.918h-187.57z" fill="#dad8db" fill-rule="evenodd"/></g><g><path clip-rule="evenodd" d="m349.785 159.041h16.696c1.899 0 3.43-1.53 3.43-3.457v-31.229c0-1.899-1.531-3.457-3.43-3.457h-37.531c1.899 0 3.458 1.559 3.458 3.457v31.229c0 1.899-1.531 3.457-3.402 3.457z" fill="#5d5360" fill-rule="evenodd"/></g><g><path clip-rule="evenodd" d="m349.785 247.294h120.635v248.206h14.606c2.495 0 4.535-2.04 4.535-4.534v-263.007h-139.776z" fill="#95d6a4" fill-rule="evenodd"/></g><g><path clip-rule="evenodd" d="m127.548 318.755h-34.668v-41.657h34.668c1.956 0 3.572 1.615 3.572 3.571v34.516c-.001 1.955-1.616 3.57-3.572 3.57z" fill="#9fd4fe" fill-rule="evenodd"/></g><g><path clip-rule="evenodd" d="m92.88 318.755h-34.64c-1.984 0-3.6-1.615-3.6-3.571v-34.516c0-1.955 1.616-3.571 3.6-3.571h34.64z" fill="#9fd4fe" fill-rule="evenodd"/></g><g><path clip-rule="evenodd" d="m92.88 393.766h-34.64c-1.984 0-3.6-1.615-3.6-3.599v-34.487c0-1.984 1.616-3.599 3.6-3.599h34.64z" fill="#9fd4fe" fill-rule="evenodd"/></g><g><path clip-rule="evenodd" d="m127.548 393.766h-34.668v-41.685h34.668c1.956 0 3.572 1.615 3.572 3.599v34.488c-.001 1.983-1.616 3.598-3.572 3.598z" fill="#9fd4fe" fill-rule="evenodd"/></g><g><path clip-rule="evenodd" d="m384.452 318.755h34.639v-41.657h-34.639c-1.984 0-3.6 1.615-3.6 3.571v34.516c0 1.955 1.616 3.57 3.6 3.57z" fill="#9fd4fe" fill-rule="evenodd"/></g><g><path clip-rule="evenodd" d="m419.092 318.755h34.668c1.956 0 3.572-1.615 3.572-3.571v-34.516c0-1.955-1.616-3.571-3.572-3.571h-34.668z" fill="#9fd4fe" fill-rule="evenodd"/></g><g><path clip-rule="evenodd" d="m419.092 393.766h34.668c1.956 0 3.572-1.615 3.572-3.599v-34.487c0-1.984-1.616-3.599-3.572-3.599h-34.668z" fill="#9fd4fe" fill-rule="evenodd"/></g><g><path clip-rule="evenodd" d="m384.452 393.766h34.639v-41.685h-34.639c-1.984 0-3.6 1.615-3.6 3.599v34.488c0 1.983 1.616 3.598 3.6 3.598z" fill="#9fd4fe" fill-rule="evenodd"/></g><g><path clip-rule="evenodd" d="m210.773 462.259 45.213 7v-109.244h-39.884c-2.92 0-5.329 2.38-5.329 5.299z" fill="#9fd4fe" fill-rule="evenodd"/></g><g><path clip-rule="evenodd" d="m255.986 467.259 45.213-5v-96.945c0-2.919-2.381-5.299-5.301-5.299h-39.912z" fill="#9fd4fe" fill-rule="evenodd"/></g><g><path clip-rule="evenodd" d="m255.986 303.849c30.501 0 55.219-24.853 55.219-55.486s-24.718-55.486-55.219-55.486-55.219 24.853-55.219 55.486 24.718 55.486 55.219 55.486z" fill="#9fd4fe" fill-rule="evenodd"/></g><g><path clip-rule="evenodd" d="m349.785 227.959h139.777 12.359c1.417 0 2.58-1.162 2.58-2.579v-26.326c0-1.417-1.162-2.579-2.58-2.579h-152.136z" fill="#6f6571" fill-rule="evenodd"/></g><g><path clip-rule="evenodd" d="m489.561 227.959h12.359c1.417 0 2.58-1.162 2.58-2.579v-26.326c0-1.417-1.162-2.579-2.58-2.579h-29.565c1.389 0 2.551 1.162 2.551 2.579v26.326c0 1.417-1.162 2.579-2.551 2.579z" fill="#5d5360" fill-rule="evenodd"/></g><g><path clip-rule="evenodd" d="m196.628 495.5h118.715v-26.723c0-3.571-3.175-6.518-7.03-6.518h-7.115-45.213-45.213-7.087c-3.883 0-7.058 2.947-7.058 6.518v26.723z" fill="#b3e59f" fill-rule="evenodd"/></g><g><path clip-rule="evenodd" d="m54.64 372.909h38.24v-20.829h-34.64c-1.984 0-3.6 1.615-3.6 3.571z" fill="#72bffc" fill-rule="evenodd"/></g><g><path clip-rule="evenodd" d="m92.88 372.909h38.239v-17.258c0-1.955-1.616-3.571-3.572-3.571h-34.667z" fill="#72bffc" fill-rule="evenodd"/></g><g><path clip-rule="evenodd" d="m380.852 297.926h38.24v-20.829h-34.639c-1.984 0-3.6 1.615-3.6 3.571v17.258z" fill="#72bffc" fill-rule="evenodd"/></g><g><path clip-rule="evenodd" d="m419.092 297.926h38.239v-17.258c0-1.955-1.616-3.571-3.572-3.571h-34.668v20.829z" fill="#72bffc" fill-rule="evenodd"/></g><g><path clip-rule="evenodd" d="m380.852 372.909h38.24v-20.829h-34.639c-1.984 0-3.6 1.615-3.6 3.571v17.258z" fill="#72bffc" fill-rule="evenodd"/></g><g><path clip-rule="evenodd" d="m419.092 372.909h38.239v-17.258c0-1.955-1.616-3.571-3.572-3.571h-34.668v20.829z" fill="#72bffc" fill-rule="evenodd"/></g><g><path clip-rule="evenodd" d="m239.488 205.742c30.501 0 55.219 24.824 55.219 55.458 0 14.056-5.187 26.893-13.776 36.67 17.972-9.153 30.274-27.885 30.274-49.507 0-30.634-24.718-55.486-55.219-55.486-16.498 0-31.323 7.283-41.443 18.817 7.484-3.798 15.959-5.952 24.945-5.952z" fill="#72bffc" fill-rule="evenodd"/></g><g><path clip-rule="evenodd" d="m293.205 495.5h22.139v-26.723c0-3.571-3.175-6.518-7.03-6.518h-7.115-15.024c3.855 0 7.03 2.947 7.03 6.518z" fill="#95d6a4" fill-rule="evenodd"/></g><g><path clip-rule="evenodd" d="m299.356 83.831h23.584c3.317 0 6.038-2.72 6.038-6.064v-43.216c0-3.344-2.721-6.064-6.038-6.064h-23.584c3.345 0 6.066 2.72 6.066 6.064v43.216c0 3.344-2.721 6.064-6.066 6.064z" fill="#f76672" fill-rule="evenodd"/></g><g><path d="m272.71 248.203h-9.225v-20.243c0-4.142-3.357-7.5-7.5-7.5s-7.5 3.358-7.5 7.5v27.743c0 4.142 3.357 7.5 7.5 7.5h16.725c4.143 0 7.5-3.358 7.5-7.5s-3.357-7.5-7.5-7.5z"/><path d="m255.985 185.377c-34.583 0-62.719 28.255-62.719 62.986s28.136 62.986 62.719 62.986c34.584 0 62.72-28.255 62.72-62.986s-28.136-62.986-62.72-62.986zm0 110.972c-26.312 0-47.719-21.526-47.719-47.986 0-26.459 21.406-47.986 47.719-47.986s47.72 21.526 47.72 47.986-21.407 47.986-47.72 47.986z"/><path d="m58.24 326.255h69.308c6.104 0 11.071-4.966 11.071-11.071v-34.516c0-6.104-4.967-11.071-11.071-11.071h-69.308c-6.12 0-11.1 4.966-11.1 11.071v34.516c.001 6.105 4.98 11.071 11.1 11.071zm42.14-41.657h23.239v26.657h-23.239zm-38.239 0h23.239v26.657h-23.239z"/><path d="m47.141 390.167c0 6.12 4.979 11.099 11.1 11.099h69.308c6.104 0 11.071-4.979 11.071-11.099v-34.487c0-6.12-4.967-11.099-11.071-11.099h-69.309c-6.12 0-11.1 4.979-11.1 11.099v34.487zm53.239-30.586h23.239v26.686h-23.239zm-38.239 0h23.239v26.686h-23.239z"/><path d="m384.452 326.255h69.308c6.104 0 11.071-4.966 11.071-11.071v-34.516c0-6.104-4.967-11.071-11.071-11.071h-69.308c-6.12 0-11.1 4.966-11.1 11.071v34.516c.001 6.105 4.98 11.071 11.1 11.071zm42.14-41.657h23.239v26.657h-23.239zm-38.239 0h23.239v26.657h-23.239z"/><path d="m384.452 401.266h69.308c6.104 0 11.071-4.979 11.071-11.099v-34.487c0-6.12-4.967-11.099-11.071-11.099h-69.308c-6.12 0-11.1 4.979-11.1 11.099v34.487c.001 6.12 4.98 11.099 11.1 11.099zm42.14-41.685h23.239v26.686h-23.239zm-38.239 0h23.239v26.686h-23.239z"/><path d="m501.921 188.976h-144.637v-22.435h9.196c6.026 0 10.93-4.916 10.93-10.958v-31.229c0-6.042-4.903-10.957-10.93-10.957h-102.995v-22.065h59.455c7.465 0 13.538-6.085 13.538-13.564v-43.217c0-7.479-6.073-13.564-13.538-13.564h-59.455v-4.487c0-4.142-3.357-7.5-7.5-7.5s-7.5 3.358-7.5 7.5v11.987 55.345 29.566h-102.965c-6.042 0-10.958 4.916-10.958 10.957v31.229c0 6.042 4.916 10.958 10.958 10.958h9.196v22.435h-144.665c-5.542-.001-10.051 4.52-10.051 10.078v26.326c0 5.558 4.509 10.079 10.051 10.079h4.859v99.958c0 4.142 3.357 7.5 7.5 7.5s7.5-3.358 7.5-7.5v-99.958h124.806v252.54h-124.806v-117.953c0-4.142-3.357-7.5-7.5-7.5s-7.5 3.358-7.5 7.5v120.919c0 6.636 5.412 12.034 12.063 12.034h135.242 187.568 135.242c6.636 0 12.035-5.398 12.035-12.034v-255.507h4.859c5.558 0 10.079-4.521 10.079-10.079v-26.326c.002-5.557-4.519-10.078-10.077-10.078zm-238.436-152.989h57.993v40.345h-57.993zm-108.769 184.472h-139.716v-16.484h139.716zm342.284-16.483v16.484h-7.438-132.278v-16.484zm-189.156 284.024h-103.716v-18.241h6.646 90.425 6.646v18.241zm-89.571-33.241v-87.244h30.212v87.244zm45.212 0v-87.244h30.213v87.244zm45.213.019v-89.464c0-7.058-5.742-12.799-12.801-12.799h-79.795c-7.074 0-12.829 5.742-12.829 12.799v89.465c-7.835.213-14.146 6.403-14.146 13.998v19.223h-19.412v-260.041-31.484-29.935h68.015c4.143 0 7.5-3.358 7.5-7.5s-3.357-7.5-7.5-7.5h-88.169v-23.143h212.849v23.143h-91.287c-4.143 0-7.5 3.358-7.5 7.5s3.357 7.5 7.5 7.5h71.161v321.46h-19.44v-19.223c0-7.604-6.313-13.8-14.146-13.999zm173.364 33.222h-124.778v-252.541h124.777v252.541z"/></g></g></svg>