<svg width="39" height="38" viewBox="0 0 39 38" fill="none" xmlns="http://www.w3.org/2000/svg">
<path d="M36.8825 16.2059C36.4381 16.2059 36.0116 16.3824 35.6971 16.697C35.3829 17.0112 35.2063 17.4377 35.2063 17.8824V31.8531C35.2063 32.5941 34.9116 33.3048 34.3877 33.8287C33.8638 34.3529 33.1532 34.6472 32.4121 34.6472H12.8532C12.1122 34.6472 11.4012 34.3529 10.8773 33.8287C10.3534 33.3048 10.0591 32.5941 10.0591 31.8531H25.7062H25.7058C27.3364 31.8531 28.8999 31.2052 30.0526 30.0526C31.2057 28.8999 31.8531 27.3364 31.8531 25.7058V11.7351C31.8531 11.1364 31.5335 10.5829 31.015 10.2835C30.4962 9.98374 29.857 9.98374 29.3384 10.2835C28.8196 10.5829 28.5 11.1364 28.5 11.7351V25.7058C28.5 26.4468 28.2057 27.1575 27.6818 27.6818C27.1579 28.2057 26.4469 28.5 25.7058 28.5H6.14689C5.40587 28.5 4.69524 28.2057 4.17134 27.6818C3.64744 27.1575 3.35275 26.4469 3.35275 25.7058V6.14688C3.35275 5.40586 3.64744 4.69523 4.17134 4.17133C4.69524 3.64704 5.40585 3.35274 6.14689 3.35274H20.1176C20.7167 3.35274 21.2702 3.0331 21.5696 2.51466C21.869 1.99583 21.869 1.35689 21.5696 0.83808C21.2702 0.31927 20.7167 0 20.1176 0H6.14689C4.51672 0 2.9532 0.64747 1.80052 1.80012C0.64744 2.9532 0 4.51672 0 6.14689V25.7058C0 27.3364 0.64747 28.8999 1.80052 30.0526C2.9532 31.2053 4.51672 31.8531 6.14689 31.8531H6.70588C6.70588 33.4833 7.35335 35.0468 8.5064 36.1999C9.65908 37.3526 11.2226 38 12.8532 38H32.4121C34.0423 38 35.6058 37.3525 36.7585 36.1999C37.9116 35.0468 38.559 33.4833 38.559 31.8531V17.8824C38.559 17.4377 38.3824 17.0112 38.0682 16.697C37.7537 16.3825 37.3272 16.2059 36.8824 16.2059L36.8825 16.2059Z" fill="#0077FF"/>
<path d="M9.22015 10.5126C8.78005 10.1064 8.15638 9.96571 7.58448 10.1439C7.01263 10.322 6.57919 10.7917 6.44737 11.3761C6.31562 11.9604 6.50545 12.5709 6.94554 12.977L13.6124 19.1243C13.9177 19.4046 14.316 19.5617 14.73 19.5656H14.8083C15.257 19.5433 15.6776 19.3418 15.9762 19.007L30.35 3.18618C30.695 2.86616 30.8891 2.41592 30.8856 1.94499C30.8821 1.4745 30.681 1.027 30.3313 0.712079C29.9816 0.397161 29.5158 0.243533 29.0473 0.289137C28.5791 0.334354 28.1511 0.574867 27.8686 0.951028L14.6244 15.5364L9.22015 10.5126Z" fill="#0077FF"/>
</svg>
