<svg width="58" height="29" viewBox="0 0 58 29" fill="none" xmlns="http://www.w3.org/2000/svg">
<path d="M57.9393 14.9138C57.9348 18.6483 56.4494 22.2283 53.8089 24.8692C51.168 27.5097 47.5881 28.9951 43.8535 28.9995C39.3803 29.0017 35.1805 26.847 32.573 23.2127C32.2604 22.7852 32.1299 22.2514 32.211 21.7282C32.2916 21.2055 32.577 20.7357 33.004 20.4231C33.4314 20.1101 33.9649 19.9801 34.4881 20.0607C35.0113 20.1417 35.4811 20.4271 35.7937 20.8542C37.6531 23.4577 40.6543 25.005 43.8535 25.0099C47.4608 25.0099 50.7936 23.0859 52.5974 19.9618C54.4007 16.8383 54.4007 12.9893 52.5974 9.86576C50.7936 6.74175 47.4608 4.81772 43.8535 4.81772C40.0576 4.82885 36.5426 6.81961 34.5807 10.0697L27.5365 21.8106V21.8102C24.8493 26.2584 20.0372 28.984 14.8403 29C9.80784 29 5.15785 26.3154 2.64107 21.9571C0.124853 17.5988 0.124853 12.2297 2.64107 7.8714C5.15728 3.51311 9.80727 0.828535 14.8403 0.828535C19.3135 0.826309 23.5133 2.98101 26.1208 6.61535C26.542 7.19109 26.6244 7.94721 26.3368 8.59991C26.0491 9.25224 25.4355 9.70197 24.7267 9.77902C24.0173 9.85606 23.3214 9.54927 22.9002 8.97397C21.0408 6.37044 18.0396 4.82314 14.8403 4.81824C11.2331 4.81824 7.90028 6.74227 6.0965 9.86628C4.29318 12.9898 4.29318 16.8388 6.0965 19.9624C7.90028 23.0864 11.2331 25.0104 14.8403 25.0104C18.6363 24.9993 22.1513 23.0085 24.1132 19.7584L31.1574 8.01748V8.01793C33.8446 3.5697 38.6567 0.844084 43.8536 0.828125C47.5881 0.832578 51.1681 2.31797 53.809 4.95844C56.4495 7.59935 57.9349 11.1793 57.9393 14.9139L57.9393 14.9138Z" fill="#0077FF"/>
</svg>
