<svg width="46" height="44" viewBox="0 0 46 44" fill="none" xmlns="http://www.w3.org/2000/svg">
<mask id="path-1-outside-1_1209_2120" maskUnits="userSpaceOnUse" x="0.0742188" y="0.0625" width="46" height="44" fill="black">
<rect fill="white" x="0.0742188" y="0.0625" width="46" height="44"/>
<path d="M39.8997 1.0625H6.25498C3.39822 1.0625 1.07422 3.38612 1.07422 6.24298V37.563C1.07422 40.4197 3.39822 42.7435 6.25498 42.7435H39.8997C42.7565 42.7435 45.0805 40.4198 45.0805 37.563V6.24393C45.0809 3.38717 42.7565 1.06317 39.8997 1.06317V1.0625ZM42.8588 37.5625C42.8588 39.1935 41.5314 40.5208 39.9005 40.5208H6.25479C4.62384 40.5208 3.29651 39.1937 3.29651 37.5625V13.9968H42.8584L42.8588 37.5625ZM42.8588 11.7749H3.29689V6.24326C3.29689 4.61231 4.62431 3.28498 6.25517 3.28498H39.8999C41.5309 3.28498 42.8582 4.61202 42.8582 6.24326L42.8586 11.7749H42.8588Z"/>
</mask>
<path d="M39.8997 1.0625H6.25498C3.39822 1.0625 1.07422 3.38612 1.07422 6.24298V37.563C1.07422 40.4197 3.39822 42.7435 6.25498 42.7435H39.8997C42.7565 42.7435 45.0805 40.4198 45.0805 37.563V6.24393C45.0809 3.38717 42.7565 1.06317 39.8997 1.06317V1.0625ZM42.8588 37.5625C42.8588 39.1935 41.5314 40.5208 39.9005 40.5208H6.25479C4.62384 40.5208 3.29651 39.1937 3.29651 37.5625V13.9968H42.8584L42.8588 37.5625ZM42.8588 11.7749H3.29689V6.24326C3.29689 4.61231 4.62431 3.28498 6.25517 3.28498H39.8999C41.5309 3.28498 42.8582 4.61202 42.8582 6.24326L42.8586 11.7749H42.8588Z" fill="#0077FF"/>
<path d="M39.8997 1.0625H40.3115V0.650778H39.8997V1.0625ZM45.0805 6.24393L44.6688 6.24388V6.24393H45.0805ZM39.8997 1.06317H39.488V1.47489H39.8997V1.06317ZM42.8588 37.5625H43.2705V37.5625L42.8588 37.5625ZM3.29651 13.9968V13.5851H2.88478V13.9968H3.29651ZM42.8584 13.9968L43.2701 13.9968L43.2701 13.5851H42.8584V13.9968ZM3.29689 11.7749H2.88516V12.1866H3.29689V11.7749ZM42.8582 6.24326H42.4465V6.24329L42.8582 6.24326ZM42.8586 11.7749L42.4469 11.7749L42.4469 12.1866H42.8586V11.7749ZM39.8997 0.650778H6.25498V1.47422H39.8997V0.650778ZM6.25498 0.650778C3.17087 0.650778 0.662497 3.1587 0.662497 6.24298H1.48594C1.48594 3.61354 3.62557 1.47422 6.25498 1.47422V0.650778ZM0.662497 6.24298V37.563H1.48594V6.24298H0.662497ZM0.662497 37.563C0.662497 40.6472 3.17086 43.1552 6.25498 43.1552V42.3317C3.62558 42.3317 1.48594 40.1923 1.48594 37.563H0.662497ZM6.25498 43.1552H39.8997V42.3317H6.25498V43.1552ZM39.8997 43.1552C42.9839 43.1552 45.4922 40.6473 45.4922 37.563H44.6688C44.6688 40.1924 42.5292 42.3317 39.8997 42.3317V43.1552ZM45.4922 37.563V6.24393H44.6688V37.563H45.4922ZM45.4922 6.24398C45.4926 3.15974 42.9839 0.651445 39.8997 0.651445V1.47489C42.5292 1.47489 44.6691 3.61459 44.6688 6.24388L45.4922 6.24398ZM40.3115 1.06317V1.0625H39.488V1.06317H40.3115ZM42.4471 37.5625C42.4471 38.9661 41.304 40.1091 39.9005 40.1091V40.9325C41.7587 40.9325 43.2705 39.4208 43.2705 37.5625H42.4471ZM39.9005 40.1091H6.25479V40.9325H39.9005V40.1091ZM6.25479 40.1091C4.8512 40.1091 3.70823 38.9663 3.70823 37.5625H2.88478C2.88478 39.4212 4.39648 40.9325 6.25479 40.9325V40.1091ZM3.70823 37.5625V13.9968H2.88478V37.5625H3.70823ZM3.29651 14.4085H42.8584V13.5851H3.29651V14.4085ZM42.4467 13.9968L42.4471 37.5625L43.2705 37.5625L43.2701 13.9968L42.4467 13.9968ZM42.8588 11.3632H3.29689V12.1866H42.8588V11.3632ZM3.70861 11.7749V6.24326H2.88516V11.7749H3.70861ZM3.70861 6.24326C3.70861 4.83971 4.85169 3.6967 6.25517 3.6967V2.87325C4.39694 2.87325 2.88516 4.38491 2.88516 6.24326H3.70861ZM6.25517 3.6967H39.8999V2.87325H6.25517V3.6967ZM39.8999 3.6967C41.3035 3.6967 42.4465 4.83944 42.4465 6.24326H43.2699C43.2699 4.38461 41.7582 2.87325 39.8999 2.87325V3.6967ZM42.4465 6.24329L42.4469 11.7749L43.2703 11.7749L43.2699 6.24323L42.4465 6.24329ZM42.8586 12.1866H42.8588V11.3632H42.8586V12.1866Z" fill="#0077FF" mask="url(#path-1-outside-1_1209_2120)"/>
<path d="M6.69141 6.73438H9.92617V8.95647H6.69141V6.73438Z" fill="#0077FF"/>
<path d="M11.9219 6.73438H15.1566V8.95647H11.9219V6.73438Z" fill="#0077FF"/>
<path d="M17.1562 6.73438H20.391V8.95647H17.1562V6.73438Z" fill="#0077FF"/>
<path d="M7.70117 34.442H17.0367C17.6505 34.442 18.1479 33.9446 18.1479 33.3308L18.1476 20.8612C18.1476 20.2474 17.6502 19.75 17.0363 19.75H7.70108C7.08724 19.75 6.58984 20.2474 6.58984 20.8612V33.3308C6.58984 33.9446 7.08724 34.442 7.70108 34.442H7.70117ZM8.81202 21.9725H15.9255V32.2191H8.81202V21.9725Z" fill="#0077FF"/>
<path d="M20.6133 20.8047H30.8599V23.0268H20.6133V20.8047Z" fill="#0077FF"/>
<path d="M20.6133 25.9844H38.2685V28.2065H20.6133V25.9844Z" fill="#0077FF"/>
<path d="M20.6133 31.1562H38.2685V33.3783H20.6133V31.1562Z" fill="#0077FF"/>
</svg>
