<svg width="35" height="45" viewBox="0 0 35 45" fill="none" xmlns="http://www.w3.org/2000/svg">
<mask id="path-1-outside-1_1209_2134" maskUnits="userSpaceOnUse" x="-0.394531" y="0.0234375" width="36" height="45" fill="black">
<rect fill="white" x="-0.394531" y="0.0234375" width="36" height="45"/>
<path d="M29.0105 1.02344H7.87023C2.1229 1.02344 0.605469 5.77796 0.605469 8.2882V37.3472C0.605469 43.0946 5.35999 44.612 7.87023 44.612H27.2429C32.9902 44.612 34.5077 39.8575 34.5077 37.3472V6.52067C34.5077 3.49373 32.0378 1.02381 29.0108 1.02381L29.0105 1.02344ZM32.8929 37.3472C32.8929 37.5815 32.796 42.9976 27.2426 42.9976H7.86986C7.63563 42.9976 2.21949 42.9007 2.21949 37.3472V8.2882C2.21949 8.05396 2.31643 2.63783 7.86986 2.63783H29.0101C31.1492 2.63783 32.8926 4.38119 32.8926 6.5203L32.8929 37.3472ZM22.1088 9.612C19.8811 9.612 18.0728 11.4203 18.0728 13.648C18.0728 15.8757 19.8811 17.684 22.1088 17.684C24.3365 17.684 26.1448 15.8757 26.1448 13.648C26.1448 11.4199 24.3365 9.612 22.1088 9.612ZM22.1088 16.0696C20.7769 16.0696 19.6872 14.9799 19.6872 13.648C19.6872 12.3161 20.7769 11.2264 22.1088 11.2264C23.4407 11.2264 24.5304 12.3161 24.5304 13.648C24.5304 14.9799 23.4407 16.0696 22.1088 16.0696ZM29.8983 11.4282C29.8338 11.3554 29.8013 11.2506 29.8255 11.1457L30.0111 10.3061C30.2291 9.32121 29.672 8.35258 28.7116 8.04594L27.8882 7.78756C27.7913 7.75513 27.7105 7.6827 27.6864 7.58576L27.428 6.76235C27.1293 5.80165 26.1528 5.23661 25.1679 5.4629L24.3282 5.64848C24.2313 5.67263 24.1264 5.64056 24.0457 5.57569L23.4079 4.99444C22.6652 4.31625 21.5434 4.31625 20.8007 4.99444L20.1629 5.57569C20.0901 5.64848 19.9852 5.67263 19.8804 5.64848L19.0407 5.4629C18.0558 5.24489 17.0872 5.802 16.7806 6.76235L16.5222 7.58576C16.4898 7.6827 16.4173 7.76342 16.3204 7.78756L15.497 8.04594C14.5363 8.3526 13.9796 9.32121 14.1975 10.2982L14.3831 11.1378C14.4073 11.2347 14.3752 11.3396 14.3103 11.4203L13.7291 12.0581C13.0509 12.8008 13.0509 13.9226 13.7291 14.6653L14.3103 15.3032C14.3831 15.376 14.4073 15.4808 14.3831 15.5857L14.1975 16.4253C13.9795 17.4102 14.5366 18.3788 15.497 18.6855L16.3204 18.9438C16.4173 18.9763 16.4981 19.0487 16.5222 19.1456L16.7806 19.969C17.0065 20.6876 17.604 21.1798 18.298 21.293L17.2407 29.8089C17.2004 30.1156 17.3456 30.4222 17.604 30.592C17.733 30.6727 17.8865 30.721 18.04 30.721C18.1852 30.721 18.3387 30.6806 18.4677 30.5999L22.1001 28.3318L25.7083 30.495C25.9746 30.6564 26.3058 30.6485 26.5638 30.4788C26.8222 30.3094 26.9595 30.0107 26.927 29.704L25.8856 21.3092C26.588 21.196 27.1771 20.7038 27.4031 19.9852L27.6614 19.1618C27.6939 19.0648 27.7663 18.9841 27.8632 18.96L28.6866 18.7016C29.6473 18.3949 30.2041 17.4263 29.9861 16.4415L29.8005 15.6018C29.7764 15.5049 29.8084 15.4 29.8733 15.3193L30.4546 14.6815C31.1407 13.9388 31.1407 12.817 30.4546 12.0743L29.8983 11.4282ZM22.5283 26.6764C22.2699 26.5229 21.9391 26.5229 21.6886 26.6843L19.0731 28.3149L19.969 21.0827C20.0418 21.0827 20.1142 21.1068 20.1708 21.1554L20.8086 21.7367C21.1798 22.0758 21.6482 22.2452 22.108 22.2452C22.5682 22.2452 23.0363 22.0758 23.4075 21.7367L24.0453 21.1554C24.1019 21.1072 24.1743 21.0827 24.2471 21.0827L25.135 28.2425L22.5283 26.6764ZM29.2928 13.5758L28.7116 14.2137C28.2838 14.6738 28.1141 15.3196 28.2514 15.9329L28.437 16.7726C28.4694 16.9261 28.3804 17.0875 28.2273 17.1358L27.4038 17.3942C26.8064 17.5798 26.3303 18.0562 26.1448 18.6532L25.8864 19.4767C25.8381 19.6302 25.6846 19.7188 25.5232 19.6864L25.2245 19.6219C25.2082 19.6139 25.192 19.6139 25.1762 19.6139L24.6839 19.5008C24.0706 19.3635 23.4249 19.5332 22.9646 19.961L22.3268 20.5422C22.2057 20.6554 22.0202 20.6554 21.8991 20.5422L21.2612 19.961C20.898 19.6302 20.4378 19.4525 19.9535 19.4525C19.8162 19.4525 19.671 19.4687 19.5337 19.5008L19.0656 19.6057C19.0331 19.6136 19.009 19.6136 18.9849 19.6219L18.6944 19.6864C18.533 19.7188 18.3795 19.6298 18.3312 19.4766L18.0728 18.6532C17.8872 18.0558 17.4108 17.5797 16.8138 17.3942L15.9903 17.1358C15.8368 17.0875 15.7403 16.9261 15.7806 16.7647L15.9662 15.925C16.1035 15.3117 15.9338 14.666 15.506 14.2057L14.9248 13.5679C14.8116 13.4468 14.8116 13.2613 14.9248 13.1481L15.506 12.5103C15.9338 12.0501 16.1035 11.4044 15.9662 10.791L15.7806 9.95135C15.7482 9.78991 15.8372 9.6364 15.9903 9.58811L16.8138 9.32974C17.4112 9.14416 17.8873 8.66776 18.0728 8.0707L18.3312 7.24728C18.3795 7.09377 18.533 6.9972 18.6944 7.03756L19.534 7.22314C20.1474 7.36044 20.7931 7.19071 21.2533 6.76297L21.8912 6.18171C22.0122 6.06856 22.1978 6.06856 22.3189 6.18171L22.9567 6.76297C23.4169 7.19071 24.0626 7.36044 24.676 7.22314L25.5156 7.03756C25.6771 7.00513 25.8385 7.09414 25.8789 7.24728L26.1373 8.0707C26.3228 8.66817 26.7992 9.14422 27.3963 9.32974L28.2197 9.58811C28.3732 9.6364 28.4698 9.79784 28.4294 9.95135L28.2439 10.791C28.1066 11.4043 28.2763 12.05 28.704 12.5103L29.2853 13.1481C29.4056 13.2771 29.4056 13.4548 29.2928 13.5758L29.2928 13.5758ZM5.44781 17.9751C5.44781 17.5311 5.81105 17.1679 6.25501 17.1679H11.0982C11.5421 17.1679 11.9054 17.5311 11.9054 17.9751C11.9054 18.4191 11.5421 18.7823 11.0982 18.7823H6.25501C5.81105 18.7823 5.44781 18.4191 5.44781 17.9751ZM5.44781 22.8183C5.44781 22.3743 5.81105 22.0111 6.25501 22.0111H14.327C14.7709 22.0111 15.1342 22.3743 15.1342 22.8183C15.1342 23.2622 14.7709 23.6255 14.327 23.6255H6.25501C5.81105 23.6255 5.44781 23.2622 5.44781 22.8183ZM5.44781 27.6614C5.44781 27.2175 5.81105 26.8543 6.25501 26.8543H14.327C14.7709 26.8543 15.1342 27.2175 15.1342 27.6614C15.1342 28.1054 14.7709 28.4686 14.327 28.4686H6.25501C5.81105 28.4686 5.44781 28.1054 5.44781 27.6614ZM29.6637 32.5046C29.6637 32.9486 29.3004 33.3118 28.8565 33.3118H6.25501C5.81105 33.3118 5.44781 32.9486 5.44781 32.5046C5.44781 32.0607 5.81105 31.6974 6.25501 31.6974H28.8565C29.3004 31.6974 29.6637 32.0607 29.6637 32.5046ZM29.6637 37.3478C29.6637 37.7918 29.3004 38.155 28.8565 38.155H6.25501C5.81105 38.155 5.44781 37.7918 5.44781 37.3478C5.44781 36.9038 5.81105 36.5406 6.25501 36.5406H28.8565C29.3004 36.5406 29.6637 36.9038 29.6637 37.3478Z"/>
</mask>
<path d="M29.0105 1.02344H7.87023C2.1229 1.02344 0.605469 5.77796 0.605469 8.2882V37.3472C0.605469 43.0946 5.35999 44.612 7.87023 44.612H27.2429C32.9902 44.612 34.5077 39.8575 34.5077 37.3472V6.52067C34.5077 3.49373 32.0378 1.02381 29.0108 1.02381L29.0105 1.02344ZM32.8929 37.3472C32.8929 37.5815 32.796 42.9976 27.2426 42.9976H7.86986C7.63563 42.9976 2.21949 42.9007 2.21949 37.3472V8.2882C2.21949 8.05396 2.31643 2.63783 7.86986 2.63783H29.0101C31.1492 2.63783 32.8926 4.38119 32.8926 6.5203L32.8929 37.3472ZM22.1088 9.612C19.8811 9.612 18.0728 11.4203 18.0728 13.648C18.0728 15.8757 19.8811 17.684 22.1088 17.684C24.3365 17.684 26.1448 15.8757 26.1448 13.648C26.1448 11.4199 24.3365 9.612 22.1088 9.612ZM22.1088 16.0696C20.7769 16.0696 19.6872 14.9799 19.6872 13.648C19.6872 12.3161 20.7769 11.2264 22.1088 11.2264C23.4407 11.2264 24.5304 12.3161 24.5304 13.648C24.5304 14.9799 23.4407 16.0696 22.1088 16.0696ZM29.8983 11.4282C29.8338 11.3554 29.8013 11.2506 29.8255 11.1457L30.0111 10.3061C30.2291 9.32121 29.672 8.35258 28.7116 8.04594L27.8882 7.78756C27.7913 7.75513 27.7105 7.6827 27.6864 7.58576L27.428 6.76235C27.1293 5.80165 26.1528 5.23661 25.1679 5.4629L24.3282 5.64848C24.2313 5.67263 24.1264 5.64056 24.0457 5.57569L23.4079 4.99444C22.6652 4.31625 21.5434 4.31625 20.8007 4.99444L20.1629 5.57569C20.0901 5.64848 19.9852 5.67263 19.8804 5.64848L19.0407 5.4629C18.0558 5.24489 17.0872 5.802 16.7806 6.76235L16.5222 7.58576C16.4898 7.6827 16.4173 7.76342 16.3204 7.78756L15.497 8.04594C14.5363 8.3526 13.9796 9.32121 14.1975 10.2982L14.3831 11.1378C14.4073 11.2347 14.3752 11.3396 14.3103 11.4203L13.7291 12.0581C13.0509 12.8008 13.0509 13.9226 13.7291 14.6653L14.3103 15.3032C14.3831 15.376 14.4073 15.4808 14.3831 15.5857L14.1975 16.4253C13.9795 17.4102 14.5366 18.3788 15.497 18.6855L16.3204 18.9438C16.4173 18.9763 16.4981 19.0487 16.5222 19.1456L16.7806 19.969C17.0065 20.6876 17.604 21.1798 18.298 21.293L17.2407 29.8089C17.2004 30.1156 17.3456 30.4222 17.604 30.592C17.733 30.6727 17.8865 30.721 18.04 30.721C18.1852 30.721 18.3387 30.6806 18.4677 30.5999L22.1001 28.3318L25.7083 30.495C25.9746 30.6564 26.3058 30.6485 26.5638 30.4788C26.8222 30.3094 26.9595 30.0107 26.927 29.704L25.8856 21.3092C26.588 21.196 27.1771 20.7038 27.4031 19.9852L27.6614 19.1618C27.6939 19.0648 27.7663 18.9841 27.8632 18.96L28.6866 18.7016C29.6473 18.3949 30.2041 17.4263 29.9861 16.4415L29.8005 15.6018C29.7764 15.5049 29.8084 15.4 29.8733 15.3193L30.4546 14.6815C31.1407 13.9388 31.1407 12.817 30.4546 12.0743L29.8983 11.4282ZM22.5283 26.6764C22.2699 26.5229 21.9391 26.5229 21.6886 26.6843L19.0731 28.3149L19.969 21.0827C20.0418 21.0827 20.1142 21.1068 20.1708 21.1554L20.8086 21.7367C21.1798 22.0758 21.6482 22.2452 22.108 22.2452C22.5682 22.2452 23.0363 22.0758 23.4075 21.7367L24.0453 21.1554C24.1019 21.1072 24.1743 21.0827 24.2471 21.0827L25.135 28.2425L22.5283 26.6764ZM29.2928 13.5758L28.7116 14.2137C28.2838 14.6738 28.1141 15.3196 28.2514 15.9329L28.437 16.7726C28.4694 16.9261 28.3804 17.0875 28.2273 17.1358L27.4038 17.3942C26.8064 17.5798 26.3303 18.0562 26.1448 18.6532L25.8864 19.4767C25.8381 19.6302 25.6846 19.7188 25.5232 19.6864L25.2245 19.6219C25.2082 19.6139 25.192 19.6139 25.1762 19.6139L24.6839 19.5008C24.0706 19.3635 23.4249 19.5332 22.9646 19.961L22.3268 20.5422C22.2057 20.6554 22.0202 20.6554 21.8991 20.5422L21.2612 19.961C20.898 19.6302 20.4378 19.4525 19.9535 19.4525C19.8162 19.4525 19.671 19.4687 19.5337 19.5008L19.0656 19.6057C19.0331 19.6136 19.009 19.6136 18.9849 19.6219L18.6944 19.6864C18.533 19.7188 18.3795 19.6298 18.3312 19.4766L18.0728 18.6532C17.8872 18.0558 17.4108 17.5797 16.8138 17.3942L15.9903 17.1358C15.8368 17.0875 15.7403 16.9261 15.7806 16.7647L15.9662 15.925C16.1035 15.3117 15.9338 14.666 15.506 14.2057L14.9248 13.5679C14.8116 13.4468 14.8116 13.2613 14.9248 13.1481L15.506 12.5103C15.9338 12.0501 16.1035 11.4044 15.9662 10.791L15.7806 9.95135C15.7482 9.78991 15.8372 9.6364 15.9903 9.58811L16.8138 9.32974C17.4112 9.14416 17.8873 8.66776 18.0728 8.0707L18.3312 7.24728C18.3795 7.09377 18.533 6.9972 18.6944 7.03756L19.534 7.22314C20.1474 7.36044 20.7931 7.19071 21.2533 6.76297L21.8912 6.18171C22.0122 6.06856 22.1978 6.06856 22.3189 6.18171L22.9567 6.76297C23.4169 7.19071 24.0626 7.36044 24.676 7.22314L25.5156 7.03756C25.6771 7.00513 25.8385 7.09414 25.8789 7.24728L26.1373 8.0707C26.3228 8.66817 26.7992 9.14422 27.3963 9.32974L28.2197 9.58811C28.3732 9.6364 28.4698 9.79784 28.4294 9.95135L28.2439 10.791C28.1066 11.4043 28.2763 12.05 28.704 12.5103L29.2853 13.1481C29.4056 13.2771 29.4056 13.4548 29.2928 13.5758L29.2928 13.5758ZM5.44781 17.9751C5.44781 17.5311 5.81105 17.1679 6.25501 17.1679H11.0982C11.5421 17.1679 11.9054 17.5311 11.9054 17.9751C11.9054 18.4191 11.5421 18.7823 11.0982 18.7823H6.25501C5.81105 18.7823 5.44781 18.4191 5.44781 17.9751ZM5.44781 22.8183C5.44781 22.3743 5.81105 22.0111 6.25501 22.0111H14.327C14.7709 22.0111 15.1342 22.3743 15.1342 22.8183C15.1342 23.2622 14.7709 23.6255 14.327 23.6255H6.25501C5.81105 23.6255 5.44781 23.2622 5.44781 22.8183ZM5.44781 27.6614C5.44781 27.2175 5.81105 26.8543 6.25501 26.8543H14.327C14.7709 26.8543 15.1342 27.2175 15.1342 27.6614C15.1342 28.1054 14.7709 28.4686 14.327 28.4686H6.25501C5.81105 28.4686 5.44781 28.1054 5.44781 27.6614ZM29.6637 32.5046C29.6637 32.9486 29.3004 33.3118 28.8565 33.3118H6.25501C5.81105 33.3118 5.44781 32.9486 5.44781 32.5046C5.44781 32.0607 5.81105 31.6974 6.25501 31.6974H28.8565C29.3004 31.6974 29.6637 32.0607 29.6637 32.5046ZM29.6637 37.3478C29.6637 37.7918 29.3004 38.155 28.8565 38.155H6.25501C5.81105 38.155 5.44781 37.7918 5.44781 37.3478C5.44781 36.9038 5.81105 36.5406 6.25501 36.5406H28.8565C29.3004 36.5406 29.6637 36.9038 29.6637 37.3478Z" fill="#0077FF"/>
<path d="M29.0105 1.02344H7.87023C2.1229 1.02344 0.605469 5.77796 0.605469 8.2882V37.3472C0.605469 43.0946 5.35999 44.612 7.87023 44.612H27.2429C32.9902 44.612 34.5077 39.8575 34.5077 37.3472V6.52067C34.5077 3.49373 32.0378 1.02381 29.0108 1.02381L29.0105 1.02344ZM32.8929 37.3472C32.8929 37.5815 32.796 42.9976 27.2426 42.9976H7.86986C7.63563 42.9976 2.21949 42.9007 2.21949 37.3472V8.2882C2.21949 8.05396 2.31643 2.63783 7.86986 2.63783H29.0101C31.1492 2.63783 32.8926 4.38119 32.8926 6.5203L32.8929 37.3472ZM22.1088 9.612C19.8811 9.612 18.0728 11.4203 18.0728 13.648C18.0728 15.8757 19.8811 17.684 22.1088 17.684C24.3365 17.684 26.1448 15.8757 26.1448 13.648C26.1448 11.4199 24.3365 9.612 22.1088 9.612ZM22.1088 16.0696C20.7769 16.0696 19.6872 14.9799 19.6872 13.648C19.6872 12.3161 20.7769 11.2264 22.1088 11.2264C23.4407 11.2264 24.5304 12.3161 24.5304 13.648C24.5304 14.9799 23.4407 16.0696 22.1088 16.0696ZM29.8983 11.4282C29.8338 11.3554 29.8013 11.2506 29.8255 11.1457L30.0111 10.3061C30.2291 9.32121 29.672 8.35258 28.7116 8.04594L27.8882 7.78756C27.7913 7.75513 27.7105 7.6827 27.6864 7.58576L27.428 6.76235C27.1293 5.80165 26.1528 5.23661 25.1679 5.4629L24.3282 5.64848C24.2313 5.67263 24.1264 5.64056 24.0457 5.57569L23.4079 4.99444C22.6652 4.31625 21.5434 4.31625 20.8007 4.99444L20.1629 5.57569C20.0901 5.64848 19.9852 5.67263 19.8804 5.64848L19.0407 5.4629C18.0558 5.24489 17.0872 5.802 16.7806 6.76235L16.5222 7.58576C16.4898 7.6827 16.4173 7.76342 16.3204 7.78756L15.497 8.04594C14.5363 8.3526 13.9796 9.32121 14.1975 10.2982L14.3831 11.1378C14.4073 11.2347 14.3752 11.3396 14.3103 11.4203L13.7291 12.0581C13.0509 12.8008 13.0509 13.9226 13.7291 14.6653L14.3103 15.3032C14.3831 15.376 14.4073 15.4808 14.3831 15.5857L14.1975 16.4253C13.9795 17.4102 14.5366 18.3788 15.497 18.6855L16.3204 18.9438C16.4173 18.9763 16.4981 19.0487 16.5222 19.1456L16.7806 19.969C17.0065 20.6876 17.604 21.1798 18.298 21.293L17.2407 29.8089C17.2004 30.1156 17.3456 30.4222 17.604 30.592C17.733 30.6727 17.8865 30.721 18.04 30.721C18.1852 30.721 18.3387 30.6806 18.4677 30.5999L22.1001 28.3318L25.7083 30.495C25.9746 30.6564 26.3058 30.6485 26.5638 30.4788C26.8222 30.3094 26.9595 30.0107 26.927 29.704L25.8856 21.3092C26.588 21.196 27.1771 20.7038 27.4031 19.9852L27.6614 19.1618C27.6939 19.0648 27.7663 18.9841 27.8632 18.96L28.6866 18.7016C29.6473 18.3949 30.2041 17.4263 29.9861 16.4415L29.8005 15.6018C29.7764 15.5049 29.8084 15.4 29.8733 15.3193L30.4546 14.6815C31.1407 13.9388 31.1407 12.817 30.4546 12.0743L29.8983 11.4282ZM22.5283 26.6764C22.2699 26.5229 21.9391 26.5229 21.6886 26.6843L19.0731 28.3149L19.969 21.0827C20.0418 21.0827 20.1142 21.1068 20.1708 21.1554L20.8086 21.7367C21.1798 22.0758 21.6482 22.2452 22.108 22.2452C22.5682 22.2452 23.0363 22.0758 23.4075 21.7367L24.0453 21.1554C24.1019 21.1072 24.1743 21.0827 24.2471 21.0827L25.135 28.2425L22.5283 26.6764ZM29.2928 13.5758L28.7116 14.2137C28.2838 14.6738 28.1141 15.3196 28.2514 15.9329L28.437 16.7726C28.4694 16.9261 28.3804 17.0875 28.2273 17.1358L27.4038 17.3942C26.8064 17.5798 26.3303 18.0562 26.1448 18.6532L25.8864 19.4767C25.8381 19.6302 25.6846 19.7188 25.5232 19.6864L25.2245 19.6219C25.2082 19.6139 25.192 19.6139 25.1762 19.6139L24.6839 19.5008C24.0706 19.3635 23.4249 19.5332 22.9646 19.961L22.3268 20.5422C22.2057 20.6554 22.0202 20.6554 21.8991 20.5422L21.2612 19.961C20.898 19.6302 20.4378 19.4525 19.9535 19.4525C19.8162 19.4525 19.671 19.4687 19.5337 19.5008L19.0656 19.6057C19.0331 19.6136 19.009 19.6136 18.9849 19.6219L18.6944 19.6864C18.533 19.7188 18.3795 19.6298 18.3312 19.4766L18.0728 18.6532C17.8872 18.0558 17.4108 17.5797 16.8138 17.3942L15.9903 17.1358C15.8368 17.0875 15.7403 16.9261 15.7806 16.7647L15.9662 15.925C16.1035 15.3117 15.9338 14.666 15.506 14.2057L14.9248 13.5679C14.8116 13.4468 14.8116 13.2613 14.9248 13.1481L15.506 12.5103C15.9338 12.0501 16.1035 11.4044 15.9662 10.791L15.7806 9.95135C15.7482 9.78991 15.8372 9.6364 15.9903 9.58811L16.8138 9.32974C17.4112 9.14416 17.8873 8.66776 18.0728 8.0707L18.3312 7.24728C18.3795 7.09377 18.533 6.9972 18.6944 7.03756L19.534 7.22314C20.1474 7.36044 20.7931 7.19071 21.2533 6.76297L21.8912 6.18171C22.0122 6.06856 22.1978 6.06856 22.3189 6.18171L22.9567 6.76297C23.4169 7.19071 24.0626 7.36044 24.676 7.22314L25.5156 7.03756C25.6771 7.00513 25.8385 7.09414 25.8789 7.24728L26.1373 8.0707C26.3228 8.66817 26.7992 9.14422 27.3963 9.32974L28.2197 9.58811C28.3732 9.6364 28.4698 9.79784 28.4294 9.95135L28.2439 10.791C28.1066 11.4043 28.2763 12.05 28.704 12.5103L29.2853 13.1481C29.4056 13.2771 29.4056 13.4548 29.2928 13.5758L29.2928 13.5758ZM5.44781 17.9751C5.44781 17.5311 5.81105 17.1679 6.25501 17.1679H11.0982C11.5421 17.1679 11.9054 17.5311 11.9054 17.9751C11.9054 18.4191 11.5421 18.7823 11.0982 18.7823H6.25501C5.81105 18.7823 5.44781 18.4191 5.44781 17.9751ZM5.44781 22.8183C5.44781 22.3743 5.81105 22.0111 6.25501 22.0111H14.327C14.7709 22.0111 15.1342 22.3743 15.1342 22.8183C15.1342 23.2622 14.7709 23.6255 14.327 23.6255H6.25501C5.81105 23.6255 5.44781 23.2622 5.44781 22.8183ZM5.44781 27.6614C5.44781 27.2175 5.81105 26.8543 6.25501 26.8543H14.327C14.7709 26.8543 15.1342 27.2175 15.1342 27.6614C15.1342 28.1054 14.7709 28.4686 14.327 28.4686H6.25501C5.81105 28.4686 5.44781 28.1054 5.44781 27.6614ZM29.6637 32.5046C29.6637 32.9486 29.3004 33.3118 28.8565 33.3118H6.25501C5.81105 33.3118 5.44781 32.9486 5.44781 32.5046C5.44781 32.0607 5.81105 31.6974 6.25501 31.6974H28.8565C29.3004 31.6974 29.6637 32.0607 29.6637 32.5046ZM29.6637 37.3478C29.6637 37.7918 29.3004 38.155 28.8565 38.155H6.25501C5.81105 38.155 5.44781 37.7918 5.44781 37.3478C5.44781 36.9038 5.81105 36.5406 6.25501 36.5406H28.8565C29.3004 36.5406 29.6637 36.9038 29.6637 37.3478Z" stroke="#0077FF" stroke-width="0.769551" mask="url(#path-1-outside-1_1209_2134)"/>
</svg>
