<svg width="43" height="47" viewBox="0 0 43 47" fill="none" xmlns="http://www.w3.org/2000/svg">
<path d="M33.786 31.0308V32.4808L33.786 36.9411V38.3911H32.336L17.7112 38.3911L19.31 39.9899L20.3353 41.0152L19.31 42.0405L16.1577 45.1929L15.1324 46.2182L14.1071 45.1929L6.22649 37.3123C5.53662 36.6224 5.14948 35.6864 5.14929 34.7116L33.786 31.0308ZM33.786 31.0308H32.336H17.7112M33.786 31.0308H17.7112M17.7112 31.0308L19.3103 29.4317L20.3356 28.4063L19.3103 27.381L16.158 24.2287L15.1327 23.2034L14.1074 24.2287L6.22677 32.1093C5.53715 32.799 5.149 33.7347 5.14929 34.7109L17.7112 31.0308Z" stroke="#0077FF" stroke-width="2.9"/>
<path d="M25.9448 19.0239L24.3457 20.623L23.3203 21.6483L24.3457 22.6736L27.498 25.8259L28.5233 26.8512L29.5486 25.8259L37.4292 17.9453C38.1188 17.2557 38.507 16.32 38.5067 15.3437L25.9448 19.0239ZM25.9448 19.0239L11.32 19.0239L9.86998 19.0239L9.86998 17.5739V13.1136L9.86998 11.6636L11.32 11.6636L25.9448 11.6636L24.3459 10.0648L23.3206 9.03948L24.3459 8.01417L27.4982 4.86186L28.5236 3.83656L29.5489 4.86186L35.074 10.387M25.9448 19.0239L35.074 10.387M35.074 10.387L35.074 10.3869L37.4295 12.7424C38.1193 13.4323 38.5065 14.3682 38.5067 15.343L35.074 10.387Z" stroke="#0077FF" stroke-width="2.9"/>
</svg>
